<svg width="24" height="24" viewBox="0 0 24 24" fill="none" xmlns="http://www.w3.org/2000/svg">
<g id="cart">
<path id="Vector" d="M5.41406 2.99609L2.00391 3.01367L2.01367 5.01367L4.08398 5.00391L7.37891 12.9082L6.18164 14.8242C5.78164 15.4642 5.76095 16.2726 6.12695 16.9316C6.49295 17.5906 7.18741 18 7.94141 18H20V16H7.94141L7.87695 15.8828L9.05273 14H16.5215C17.2485 14 17.9175 13.6047 18.2695 12.9707L21.873 6.48633C22.046 6.17633 22.0413 5.79819 21.8613 5.49219C21.6813 5.18719 21.352 5 20.998 5H6.25L5.41406 2.99609ZM7.08203 7H19.2988L16.5215 12H9.16602L7.08203 7ZM8 19C7.46957 19 6.96086 19.2107 6.58579 19.5858C6.21071 19.9609 6 20.4696 6 21C6 21.5304 6.21071 22.0391 6.58579 22.4142C6.96086 22.7893 7.46957 23 8 23C8.53043 23 9.03914 22.7893 9.41421 22.4142C9.78929 22.0391 10 21.5304 10 21C10 20.4696 9.78929 19.9609 9.41421 19.5858C9.03914 19.2107 8.53043 19 8 19ZM18 19C17.4696 19 16.9609 19.2107 16.5858 19.5858C16.2107 19.9609 16 20.4696 16 21C16 21.5304 16.2107 22.0391 16.5858 22.4142C16.9609 22.7893 17.4696 23 18 23C18.5304 23 19.0391 22.7893 19.4142 22.4142C19.7893 22.0391 20 21.5304 20 21C20 20.4696 19.7893 19.9609 19.4142 19.5858C19.0391 19.2107 18.5304 19 18 19Z" fill="white"/>
</g>
</svg>
