<svg width="26" height="26" viewBox="0 0 26 26" fill="none" xmlns="http://www.w3.org/2000/svg">
<path fill-rule="evenodd" clip-rule="evenodd" d="M13.0041 7.4364C9.93075 7.4364 7.43716 9.92935 7.43716 13.0023C7.43716 16.0752 9.93075 18.5682 13.0041 18.5682C16.0776 18.5682 18.5711 16.0752 18.5711 13.0023C18.5711 9.92935 16.0776 7.4364 13.0041 7.4364ZM13.0041 16.6127C11.0103 16.6127 9.39297 14.9959 9.39297 13.0023C9.39297 11.0087 11.0103 9.39184 13.0041 9.39184C14.9981 9.39184 16.6152 11.0087 16.6152 13.0023C16.6152 14.9959 14.9981 16.6127 13.0041 16.6127Z" fill="#886486"/>
<path d="M18.7912 8.51569C19.5091 8.51569 20.091 7.93387 20.091 7.21631C20.091 6.49859 19.5091 5.91693 18.7912 5.91693C18.0735 5.91693 17.4916 6.49859 17.4916 7.21631C17.4916 7.93387 18.0735 8.51569 18.7912 8.51569Z" fill="#886486"/>
<path fill-rule="evenodd" clip-rule="evenodd" d="M23.7782 8.53683C23.7275 7.38559 23.5413 6.59412 23.2745 5.90831C22.9993 5.18033 22.576 4.52858 22.0214 3.98677C21.4794 3.43653 20.8233 3.00897 20.1036 2.73815C19.4137 2.47146 18.6262 2.28529 17.4747 2.23454C16.3147 2.17948 15.9464 2.16675 13.0042 2.16675C10.062 2.16675 9.69368 2.17948 8.53792 2.23024C7.38646 2.281 6.59485 2.46733 5.90907 2.73385C5.18079 3.00897 4.52891 3.43223 3.987 3.98677C3.43665 4.52858 3.00918 5.18463 2.73814 5.90418C2.4714 6.59413 2.28519 7.38129 2.23443 8.53253C2.17936 9.69236 2.16663 10.0606 2.16663 13.0022C2.16663 15.9439 2.17936 16.3121 2.23013 17.4676C2.2809 18.6189 2.46726 19.4103 2.734 20.0962C3.00918 20.8241 3.43665 21.4759 3.987 22.0177C4.52891 22.5679 5.18509 22.9955 5.90477 23.2663C6.59485 23.533 7.38216 23.7192 8.53379 23.7699C9.68938 23.8209 10.0578 23.8334 13 23.8334C15.9423 23.8334 16.3105 23.8209 17.4663 23.7699C18.6178 23.7192 19.4094 23.533 20.0952 23.2663C21.5515 22.7033 22.703 21.5521 23.2661 20.0962C23.5327 19.4062 23.719 18.6189 23.7698 17.4676C23.8206 16.3121 23.8333 15.9439 23.8333 13.0022C23.8333 10.0606 23.829 9.69236 23.7782 8.53683ZM21.8267 17.383C21.7801 18.4411 21.6023 19.0125 21.4541 19.3935C21.09 20.3374 20.3407 21.0865 19.3966 21.4506C19.0156 21.5987 18.44 21.7765 17.3858 21.8229C16.2427 21.8739 15.8999 21.8864 13.0085 21.8864C10.117 21.8864 9.76991 21.8739 8.63102 21.8229C7.57267 21.7765 7.00116 21.5987 6.62015 21.4506C6.15034 21.277 5.7227 21.0019 5.37559 20.6421C5.01575 20.2908 4.74058 19.8675 4.56694 19.3978C4.41877 19.0168 4.241 18.4411 4.19453 17.3873C4.1436 16.2445 4.13103 15.9016 4.13103 13.0107C4.13103 10.1198 4.1436 9.77272 4.19453 8.63421C4.241 7.57606 4.41877 7.00466 4.56694 6.62372C4.74058 6.15383 5.01575 5.72644 5.37989 5.37923C5.73113 5.01946 6.15447 4.74434 6.62445 4.5709C7.00546 4.42276 7.58127 4.24503 8.63532 4.1984C9.77835 4.14764 10.1213 4.13491 13.0126 4.13491C15.9084 4.13491 16.2512 4.14764 17.3901 4.1984C18.4484 4.24503 19.0199 4.42276 19.4009 4.5709C19.8708 4.74434 20.2984 5.01946 20.6455 5.37923C21.0053 5.73057 21.2805 6.15383 21.4541 6.62372C21.6023 7.00466 21.7801 7.58019 21.8267 8.63421C21.8775 9.77702 21.8902 10.1198 21.8902 13.0107C21.8902 15.9016 21.8775 16.2402 21.8267 17.383Z" fill="#886486"/>
</svg>
