<svg width="26" height="26" viewBox="0 0 26 26" fill="none" xmlns="http://www.w3.org/2000/svg">
<path d="M4.33333 3.25C3.85883 3.25 3.25 3.60533 3.25 4.33333C3.25 9.25058 5.2442 13.946 8.6307 17.3693C12.054 20.7558 16.7494 22.75 21.6667 22.75C22.3947 22.75 22.75 22.1412 22.75 21.6667V17.8644C22.75 17.274 22.2825 16.7931 21.6921 16.779C21.0096 16.7627 20.1507 16.722 19.6079 16.6266C19.0207 16.5226 18.313 16.3224 17.8158 16.1675C17.7096 16.1339 17.6004 16.1188 17.492 16.1188C17.2039 16.1188 16.9235 16.2313 16.7134 16.4404L14.3119 18.8293C12.6522 17.955 11.322 16.9356 10.1965 15.8035C9.06437 14.678 8.04499 13.3478 7.17074 11.6882L9.55957 9.28662C9.84774 8.99737 9.95385 8.57213 9.83252 8.18213C9.67869 7.68596 9.47629 6.97926 9.37337 6.39209C9.27696 5.84934 9.23836 4.99044 9.22103 4.30794C9.20695 3.71753 8.726 3.25 8.13558 3.25H4.33333ZM13 3.25V5.41667C17.1882 5.41667 20.5833 8.81183 20.5833 13H22.75C22.75 7.61475 18.3853 3.25 13 3.25ZM5.45264 5.41667H7.09668C7.12918 5.967 7.17561 6.41447 7.23844 6.76872C7.31103 7.18038 7.42527 7.66157 7.5791 8.2054L6.27572 9.51725C5.8283 8.19342 5.54905 6.81308 5.45264 5.41667ZM13 7.58333V9.75C14.7951 9.75 16.25 11.2049 16.25 13H18.4167C18.4167 10.0089 15.9911 7.58333 13 7.58333ZM17.7967 18.4209C18.3395 18.5747 18.8217 18.689 19.2334 18.7616C19.5876 18.8244 20.033 18.8708 20.5833 18.9033V20.5474C19.1858 20.452 17.8066 20.1706 16.4827 19.7243L17.7967 18.4209Z" fill="#886486"/>
</svg>
