<svg width="24" height="24" viewBox="0 0 24 24" fill="none" xmlns="http://www.w3.org/2000/svg">
<path d="M7.5 4C5.57885 4 4 5.57885 4 7.5C4 9.42115 5.57885 11 7.5 11C9.42115 11 11 9.42115 11 7.5C11 5.57885 9.42115 4 7.5 4ZM16.1855 4.41797L6.18555 18.418L7.81445 19.582L17.8145 5.58203L16.1855 4.41797ZM7.5 6C8.34027 6 9 6.65973 9 7.5C9 8.34027 8.34027 9 7.5 9C6.65973 9 6 8.34027 6 7.5C6 6.65973 6.65973 6 7.5 6ZM16.5 13C14.5788 13 13 14.5788 13 16.5C13 18.4212 14.5788 20 16.5 20C18.4212 20 20 18.4212 20 16.5C20 14.5788 18.4212 13 16.5 13ZM16.5 15C17.3403 15 18 15.6597 18 16.5C18 17.3403 17.3403 18 16.5 18C15.6597 18 15 17.3403 15 16.5C15 15.6597 15.6597 15 16.5 15Z" fill="white"/>
</svg>
