<svg width="24" height="24" viewBox="0 0 24 24" fill="none" xmlns="http://www.w3.org/2000/svg">
<path d="M16.5 4C13.605 4 12 6.09 12 6.09C12 6.09 10.395 4 7.5 4C4.462 4 2 6.462 2 9.5C2 13.671 6.912 17.713 8.281 18.99C9.858 20.46 12 22.35 12 22.35C12 22.35 14.142 20.46 15.719 18.99C17.088 17.713 22 13.671 22 9.5C22 6.462 19.538 4 16.5 4ZM14.811 17.11C14.634 17.27 14.48 17.409 14.355 17.526C13.604 18.226 12.716 19.029 12 19.671C11.284 19.029 10.395 18.225 9.645 17.526C9.519 17.409 9.365 17.269 9.189 17.11C7.769 15.827 4 12.419 4 9.5C4 7.57 5.57 6 7.5 6C9.327 6 10.386 7.275 10.414 7.308L12 9L13.586 7.308C13.596 7.295 14.673 6 16.5 6C18.43 6 20 7.57 20 9.5C20 12.419 16.231 15.827 14.811 17.11Z" fill="#5A2957"/>
</svg>
