<svg width="98" height="18" viewBox="0 0 98 18" fill="none" xmlns="http://www.w3.org/2000/svg">
<path d="M9 0L11.5868 5.43952L17.5595 6.21885L13.1856 10.36L14.2901 16.2812L9 13.401L3.70993 16.2812L4.8144 10.36L0.440492 6.21885L6.41316 5.43952L9 0Z" fill="#F2CC6A"/>
<path d="M29 0L31.5868 5.43952L37.5595 6.21885L33.1856 10.36L34.2901 16.2812L29 13.401L23.7099 16.2812L24.8144 10.36L20.4405 6.21885L26.4132 5.43952L29 0Z" fill="#F2CC6A"/>
<path d="M49 0L51.5868 5.43952L57.5595 6.21885L53.1856 10.36L54.2901 16.2812L49 13.401L43.7099 16.2812L44.8144 10.36L40.4405 6.21885L46.4132 5.43952L49 0Z" fill="#F2CC6A"/>
<path d="M69 0L71.5868 5.43952L77.5595 6.21885L73.1856 10.36L74.2901 16.2812L69 13.401L63.7099 16.2812L64.8144 10.36L60.4405 6.21885L66.4132 5.43952L69 0Z" fill="#F2CC6A"/>
<path d="M89 1.16422L91.1353 5.65425L91.2522 5.90009L91.5221 5.93531L96.4523 6.57861L92.8418 9.9969L92.6442 10.1841L92.6941 10.4517L93.6058 15.3393L89.2391 12.9619L89 12.8317L88.7609 12.9619L84.3942 15.3393L85.3059 10.4517L85.3558 10.1841L85.1582 9.9969L81.5477 6.57861L86.4779 5.93531L86.7478 5.90009L86.8647 5.65425L89 1.16422Z" stroke="#F2CC6A"/>
</svg>
