<svg width="98" height="18" viewBox="0 0 98 18" fill="none" xmlns="http://www.w3.org/2000/svg">
<path d="M9 1.16422L11.1353 5.65425L11.2522 5.90009L11.5221 5.93531L16.4523 6.57861L12.8418 9.9969L12.6442 10.1841L12.6941 10.4517L13.6058 15.3393L9.23908 12.9619L9 12.8317L8.76092 12.9619L4.39424 15.3393L5.30592 10.4517L5.35584 10.1841L5.15816 9.9969L1.54773 6.57861L6.47785 5.93531L6.74779 5.90009L6.8647 5.65425L9 1.16422Z" stroke="#F2CC6A"/>
<path d="M29 1.16422L31.1353 5.65425L31.2522 5.90009L31.5221 5.93531L36.4523 6.57861L32.8418 9.9969L32.6442 10.1841L32.6941 10.4517L33.6058 15.3393L29.2391 12.9619L29 12.8317L28.7609 12.9619L24.3942 15.3393L25.3059 10.4517L25.3558 10.1841L25.1582 9.9969L21.5477 6.57861L26.4779 5.93531L26.7478 5.90009L26.8647 5.65425L29 1.16422Z" stroke="#F2CC6A"/>
<path d="M49 1.16422L51.1353 5.65425L51.2522 5.90009L51.5221 5.93531L56.4523 6.57861L52.8418 9.9969L52.6442 10.1841L52.6941 10.4517L53.6058 15.3393L49.2391 12.9619L49 12.8317L48.7609 12.9619L44.3942 15.3393L45.3059 10.4517L45.3558 10.1841L45.1582 9.9969L41.5477 6.57861L46.4779 5.93531L46.7478 5.90009L46.8647 5.65425L49 1.16422Z" stroke="#F2CC6A"/>
<path d="M69 1.16422L71.1353 5.65425L71.2522 5.90009L71.5221 5.93531L76.4523 6.57861L72.8418 9.9969L72.6442 10.1841L72.6941 10.4517L73.6058 15.3393L69.2391 12.9619L69 12.8317L68.7609 12.9619L64.3942 15.3393L65.3059 10.4517L65.3558 10.1841L65.1582 9.9969L61.5477 6.57861L66.4779 5.93531L66.7478 5.90009L66.8647 5.65425L69 1.16422Z" stroke="#F2CC6A"/>
<path d="M89 1.16422L91.1353 5.65425L91.2522 5.90009L91.5221 5.93531L96.4523 6.57861L92.8418 9.9969L92.6442 10.1841L92.6941 10.4517L93.6058 15.3393L89.2391 12.9619L89 12.8317L88.7609 12.9619L84.3942 15.3393L85.3059 10.4517L85.3558 10.1841L85.1582 9.9969L81.5477 6.57861L86.4779 5.93531L86.7478 5.90009L86.8647 5.65425L89 1.16422Z" stroke="#F2CC6A"/>
</svg>
