<svg width="26" height="26" viewBox="0 0 26 26" fill="none" xmlns="http://www.w3.org/2000/svg">
<path d="M13 2.16675C7.02971 2.16675 2.16663 7.02983 2.16663 13.0001C2.16663 18.9703 7.02971 23.8334 13 23.8334C18.9702 23.8334 23.8333 18.9703 23.8333 13.0001C23.8333 7.02983 18.9702 2.16675 13 2.16675ZM13 4.33341C17.7993 4.33341 21.6666 8.20078 21.6666 13.0001C21.6666 17.7994 17.7993 21.6667 13 21.6667C8.20066 21.6667 4.33329 17.7994 4.33329 13.0001C4.33329 8.20078 8.20066 4.33341 13 4.33341ZM17.3333 8.66675L6.49996 12.5706L10.8481 15.1519L13.4295 19.5001L17.3333 8.66675ZM13.7321 12.268L12.9471 14.4431L12.7122 14.0474L12.4308 13.5714L11.9547 13.29L11.5569 13.053L13.7321 12.268Z" fill="#886486"/>
</svg>
